<svg width="40" height="40" viewBox="0 0 40 40" fill="none" xmlns="http://www.w3.org/2000/svg" xmlns:xlink="http://www.w3.org/1999/xlink">
<path d="M15,38.167L25,38.167L25,35.167L15,35.167L15,38.167ZM25,38.167C29.315,38.167 32.725,37.313 35.019,35.019C37.313,32.725 38.167,29.315 38.167,25L35.167,25C35.167,29.019 34.354,31.442 32.898,32.898C31.442,34.354 29.019,35.167 25,35.167L25,38.167ZM38.167,25L38.167,15L35.167,15L35.167,25L38.167,25ZM38.167,15C38.167,10.685 37.313,7.275 35.019,4.981C32.725,2.687 29.315,1.833 25,1.833L25,4.833C29.019,4.833 31.442,5.646 32.898,7.102C34.354,8.558 35.167,10.981 35.167,15L38.167,15ZM25,1.833L15,1.833L15,4.833L25,4.833L25,1.833ZM15,1.833C10.685,1.833 7.275,2.687 4.981,4.981C2.687,7.275 1.833,10.685 1.833,15L4.833,15C4.833,10.981 5.646,8.558 7.102,7.102C8.558,5.646 10.981,4.833 15,4.833L15,1.833ZM1.833,15L1.833,25L4.833,25L4.833,15L1.833,15ZM1.833,25C1.833,29.315 2.687,32.725 4.981,35.019C7.275,37.313 10.685,38.167 15,38.167L15,35.167C10.981,35.167 8.558,34.354 7.102,32.898C5.646,31.442 4.833,29.019 4.833,25L1.833,25Z" fill="#FAFAFA"/>
<path d="M21.038,26.942C21.623,27.529 22.572,27.53 23.159,26.945C23.746,26.361 23.747,25.411 23.162,24.824L21.038,26.942ZM16.233,20L15.171,18.941C14.587,19.526 14.587,20.474 15.171,21.059L16.233,20ZM23.162,15.176C23.747,14.589 23.746,13.639 23.159,13.054C22.572,12.47 21.623,12.471 21.038,13.057L23.162,15.176ZM23.162,24.824L17.295,18.941L15.171,21.059L21.038,26.942L23.162,24.824ZM17.295,21.059L23.162,15.176L21.038,13.057L15.171,18.941L17.295,21.059Z" fill="#FAFAFA"/>
</svg>
