<svg width="48" height="48" viewBox="0 0 48 48" fill="none" xmlns="http://www.w3.org/2000/svg" xmlns:xlink="http://www.w3.org/1999/xlink">
<path d="M14.48,4L10.68,4C6.3,4 4,6.3 4,10.66L4,14.46C4,18.82 6.3,21.12 10.66,21.12L14.46,21.12C18.82,21.12 21.12,18.82 21.12,14.46L21.12,10.66C21.14,6.3 18.84,4 14.48,4Z" fill="#57ACDC"/>
<path d="M37.34,4L33.54,4C29.18,4 26.88,6.3 26.88,10.66L26.88,14.46C26.88,18.82 29.18,21.12 33.54,21.12L37.34,21.12C41.7,21.12 44,18.82 44,14.46L44,10.66C44,6.3 41.7,4 37.34,4Z" fill="#57ACDC"/>
<path d="M37.34,26.86L33.54,26.86C29.18,26.86 26.88,29.16 26.88,33.52L26.88,37.32C26.88,41.68 29.18,43.98 33.54,43.98L37.34,43.98C41.7,43.98 44,41.68 44,37.32L44,33.52C44,29.16 41.7,26.86 37.34,26.86Z" fill="#57ACDC"/>
<path d="M14.48,26.86L10.68,26.86C6.3,26.86 4,29.16 4,33.52L4,37.32C4,41.7 6.3,44 10.66,44L14.46,44C18.82,44 21.12,41.7 21.12,37.34L21.12,33.54C21.14,29.16 18.84,26.86 14.48,26.86Z" fill="#57ACDC"/>
</svg>
