<svg width="40" height="40" viewBox="0 0 40 40" fill="none" xmlns="http://www.w3.org/2000/svg" xmlns:xlink="http://www.w3.org/1999/xlink">
<path d="M25,36.667L6.667,36.667C4.833,36.667 3.333,35.167 3.333,33.333L3.333,15C3.333,14 4,13.333 5,13.333C6,13.333 6.667,14 6.667,15L6.667,33.333L25,33.333C26,33.333 26.667,34 26.667,35C26.667,36 26,36.667 25,36.667Z" fill="#FAFAFA"/>
<path d="M33.333,30L13.333,30C11.5,30 10,28.5 10,26.667L10,6.667C10,4.833 11.5,3.333 13.333,3.333L33.333,3.333C35.167,3.333 36.667,4.833 36.667,6.667L36.667,26.667C36.667,28.5 35.167,30 33.333,30ZM14.5,5.833C13.395,5.833 12.5,6.729 12.5,7.833L12.5,25.5C12.5,26.605 13.395,27.5 14.5,27.5L32.167,27.5C33.271,27.5 34.167,26.605 34.167,25.5L34.167,7.833C34.167,6.729 33.271,5.833 32.167,5.833L14.5,5.833Z" fill="#FAFAFA"/>
<path d="M21.667,21.667C21.167,21.667 20.833,21.5 20.5,21.167L17.167,17.833C16.5,17.167 16.5,16.167 17.167,15.5C17.833,14.833 18.833,14.833 19.5,15.5L21.667,17.667L27.167,12.167C27.833,11.5 28.833,11.5 29.5,12.167C30.167,12.833 30.167,13.833 29.5,14.5L22.833,21.167C22.5,21.5 22.167,21.667 21.667,21.667Z" fill="#FAFAFA"/>
</svg>
