<svg width="48" height="48" viewBox="0 0 48 48" fill="none" xmlns="http://www.w3.org/2000/svg" xmlns:xlink="http://www.w3.org/1999/xlink">
<path d="M33.36,41.66C33.34,41.66 33.3,41.66 33.28,41.66L11.1,41.66C5.22,41.24 2.58,36.72 2.58,32.68C2.58,29.08 4.68,25.08 9.26,23.98C7.98,18.98 9.06,14.28 12.32,10.88C16.02,7 21.96,5.46 27.06,7.04C31.74,8.48 35.04,12.34 36.24,17.7C40.34,18.62 43.6,21.72 44.92,26C46.34,30.66 45.06,35.44 41.56,38.5C39.32,40.52 36.4,41.66 33.36,41.66ZM11.14,26.7C11.12,26.7 11.12,26.7 11.1,26.7C7.3,26.98 5.56,29.9 5.56,32.68C5.56,35.46 7.3,38.38 11.18,38.66L33.26,38.66C35.58,38.62 37.8,37.82 39.52,36.26C42.64,33.52 42.86,29.62 42.02,26.88C41.18,24.12 38.84,21 34.76,20.48C34.1,20.4 33.58,19.9 33.46,19.24C32.66,14.44 30.06,11.12 26.16,9.92C22.1,8.68 17.42,9.9 14.48,12.96C11.82,15.74 11.06,19.58 12.3,23.8C13.32,23.94 14.3,24.24 15.2,24.7C15.94,25.08 16.24,25.98 15.86,26.72C15.48,27.46 14.58,27.76 13.84,27.38C13.02,26.96 12.12,26.74 11.22,26.74C11.2,26.7 11.18,26.7 11.14,26.7Z" fill="#939393"/>
<path d="M31.7,21.34C31.14,21.34 30.62,21.04 30.36,20.5C29.98,19.76 30.3,18.86 31.04,18.48C32.28,17.86 33.66,17.52 35.02,17.5C35.82,17.48 36.54,18.14 36.54,18.98C36.56,19.8 35.9,20.5 35.06,20.5C34.14,20.52 33.2,20.74 32.36,21.16C32.14,21.28 31.92,21.34 31.7,21.34Z" fill="#939393"/>
</svg>
