<svg width="60" height="60" viewBox="0 0 60 60" fill="none" xmlns="http://www.w3.org/2000/svg" xmlns:xlink="http://www.w3.org/1999/xlink">
<path d="M41.536,48.5C40.708,48.494 40.031,49.16 40.025,49.989C40.019,50.817 40.686,51.494 41.514,51.5L41.536,48.5ZM50.575,46.525L49.588,45.396C49.58,45.402 49.573,45.409 49.566,45.415L50.575,46.525ZM43.6,23.675L42.12,23.919C42.228,24.574 42.754,25.081 43.414,25.163L43.6,23.675ZM12.638,31.907C12.918,32.686 13.777,33.092 14.557,32.812C15.336,32.532 15.742,31.673 15.462,30.893L12.638,31.907ZM41.514,51.5C45.246,51.528 48.834,50.135 51.584,47.635L49.566,45.415C47.366,47.415 44.504,48.522 41.536,48.5L41.514,51.5ZM51.563,47.654C60.709,39.654 55.851,23.698 43.787,22.187L43.414,25.163C52.9,26.352 56.791,39.096 49.588,45.396L51.563,47.654ZM45.08,23.431C44.053,17.204 40.997,12.97 36.999,10.614C33.037,8.278 28.296,7.872 24.01,8.996C19.725,10.119 15.787,12.8 13.466,16.777C11.124,20.789 10.511,25.977 12.638,31.907L15.462,30.893C13.602,25.71 14.207,21.458 16.057,18.289C17.927,15.086 21.154,12.846 24.771,11.898C28.388,10.949 32.29,11.32 35.476,13.198C38.626,15.055 41.222,18.471 42.12,23.919L45.08,23.431Z" fill="#939393"/>
<path d="M17.519,33.762C18.257,34.138 19.161,33.844 19.537,33.106C19.913,32.368 19.619,31.465 18.881,31.088L17.519,33.762ZM13.925,31.425L13.9,29.925C13.873,29.926 13.846,29.927 13.819,29.929L13.925,31.425ZM13.819,51.521C14.645,51.58 15.363,50.958 15.421,50.131C15.48,49.305 14.858,48.587 14.031,48.529L13.819,51.521ZM18.881,31.088C17.344,30.305 15.627,29.896 13.9,29.925L13.95,32.925C15.173,32.904 16.406,33.195 17.519,33.762L18.881,31.088ZM13.819,29.929C0.288,30.887 0.357,50.566 13.819,51.521L14.031,48.529C4.243,47.834 4.262,33.613 14.031,32.921L13.819,29.929Z" fill="#939393"/>
<path d="M38.879,23.383C38.138,23.754 37.838,24.655 38.208,25.396C38.579,26.137 39.48,26.437 40.221,26.067L38.879,23.383ZM43.726,25.2C44.554,25.186 45.214,24.502 45.2,23.674C45.185,22.846 44.502,22.186 43.674,22.2L43.726,25.2ZM40.221,26.067C41.325,25.515 42.505,25.221 43.726,25.2L43.674,22.2C41.995,22.229 40.375,22.635 38.879,23.383L40.221,26.067Z" fill="#939393"/>
<path d="M26.869,53.746C25.844,53.746 24.994,52.896 24.994,51.871L24.994,41.396L23.194,43.196C22.469,43.921 21.269,43.921 20.544,43.196C19.819,42.471 19.819,41.271 20.544,40.546L25.544,35.546C26.069,35.021 26.894,34.846 27.594,35.146C28.294,35.421 28.744,36.121 28.744,36.871L28.744,51.871C28.744,52.896 27.894,53.746 26.869,53.746Z" fill="#939393"/>
<path d="M31.869,43.746C31.394,43.746 30.919,43.571 30.544,43.196L25.544,38.196C24.819,37.471 24.819,36.271 25.544,35.546C26.269,34.821 27.469,34.821 28.194,35.546L33.194,40.546C33.919,41.271 33.919,42.471 33.194,43.196C32.819,43.571 32.344,43.746 31.869,43.746Z" fill="#939393"/>
</svg>
