<svg width="40" height="40" viewBox="0 0 40 40" fill="none" xmlns="http://www.w3.org/2000/svg" xmlns:xlink="http://www.w3.org/1999/xlink">
<path d="M20.1,28.75C19.417,28.75 18.85,28.183 18.85,27.5L18.85,19.167C18.85,18.483 19.417,17.917 20.1,17.917C20.783,17.917 21.35,18.483 21.35,19.167L21.35,27.5C21.35,28.183 20.783,28.75 20.1,28.75Z" fill="#FAFAFA"/>
<path d="M24.167,24.583L15.833,24.583C15.15,24.583 14.583,24.017 14.583,23.333C14.583,22.65 15.15,22.083 15.833,22.083L24.167,22.083C24.85,22.083 25.417,22.65 25.417,23.333C25.417,24.017 24.85,24.583 24.167,24.583Z" fill="#FAFAFA"/>
<path d="M28.333,37.917L11.667,37.917C4.317,37.917 2.083,35.683 2.083,28.333L2.083,11.667C2.083,4.317 4.317,2.083 11.667,2.083L14.167,2.083C17.083,2.083 18,3.033 19.167,4.583L21.667,7.917C22.217,8.65 22.3,8.75 23.333,8.75L28.333,8.75C35.683,8.75 37.917,10.983 37.917,18.333L37.917,28.333C37.917,35.683 35.683,37.917 28.333,37.917ZM11.667,4.583C5.717,4.583 4.583,5.717 4.583,11.667L4.583,28.333C4.583,34.283 5.717,35.417 11.667,35.417L28.333,35.417C34.283,35.417 35.417,34.283 35.417,28.333L35.417,18.333C35.417,12.383 34.283,11.25 28.333,11.25L23.333,11.25C21.2,11.25 20.5,10.517 19.667,9.417L17.167,6.083C16.3,4.933 16.05,4.583 14.167,4.583L11.667,4.583L11.667,4.583Z" fill="#FAFAFA"/>
</svg>
