<svg width="252" height="252" viewBox="0 0 252 252" fill="none" xmlns="http://www.w3.org/2000/svg" xmlns:xlink="http://www.w3.org/1999/xlink">
<path d="M126,252C195.588,252 252,195.588 252,126C252,56.412 195.588,0 126,0C56.412,0 0,56.412 0,126C0,195.588 56.412,252 126,252ZM126,226C181.228,226 226,181.228 226,126C226,70.772 181.228,26 126,26C70.772,26 26,70.772 26,126C26,181.228 70.772,226 126,226Z" clip-rule="evenodd" fill-rule="evenodd" fill="#121212"/>
<circle cx="1316" cy="52" r="0" fill="#1E1E1E"/>
<path d="M126,0C152.551,0 178.424,8.388 199.925,23.965L184.746,44.916C167.66,32.537 147.1,25.872 126,25.872L126,0Z" fill="#57ACDC"/>
</svg>
