<svg width="48" height="48" viewBox="0 0 48 48" fill="none" xmlns="http://www.w3.org/2000/svg" xmlns:xlink="http://www.w3.org/1999/xlink">
<path d="M24,26.6C23.74,26.6 23.48,26.54 23.24,26.4L5.58,16.18C4.86,15.76 4.62,14.84 5.04,14.12C5.46,13.4 6.36,13.16 7.1,13.58L24,23.36L40.8,13.64C41.52,13.22 42.44,13.48 42.86,14.18C43.28,14.9 43.02,15.82 42.32,16.24L24.78,26.4C24.52,26.52 24.26,26.6 24,26.6Z" fill="#57ACDC"/>
<path d="M24,44.72C23.18,44.72 22.5,44.04 22.5,43.22L22.5,25.08C22.5,24.26 23.18,23.58 24,23.58C24.82,23.58 25.5,24.26 25.5,25.08L25.5,43.22C25.5,44.04 24.82,44.72 24,44.72Z" fill="#57ACDC"/>
<path d="M24,45.5C22.24,45.5 20.5,45.12 19.12,44.36L8.44,38.42C5.54,36.82 3.28,32.96 3.28,29.64L3.28,18.34C3.28,15.02 5.54,11.18 8.44,9.56L19.12,3.64C21.86,2.12 26.14,2.12 28.88,3.64L39.56,9.58C42.46,11.18 44.72,15.04 44.72,18.36L44.72,29.66C44.72,32.98 42.46,36.82 39.56,38.44L28.88,44.36C27.5,45.12 25.76,45.5 24,45.5ZM24,5.5C22.74,5.5 21.5,5.76 20.58,6.26L9.9,12.2C7.98,13.28 6.28,16.14 6.28,18.36L6.28,29.66C6.28,31.86 7.98,34.74 9.9,35.82L20.58,41.76C22.4,42.78 25.6,42.78 27.42,41.76L38.1,35.82C40.02,34.74 41.72,31.88 41.72,29.66L41.72,18.36C41.72,16.16 40.02,13.28 38.1,12.2L27.42,6.26C26.5,5.76 25.26,5.5 24,5.5Z" fill="#57ACDC"/>
<path d="M34,27.98C33.18,27.98 32.5,27.3 32.5,26.48L32.5,20.04L14.26,9.52C13.54,9.1 13.3,8.18 13.72,7.48C14.14,6.76 15.04,6.52 15.76,6.94L34.74,17.9C35.2,18.16 35.5,18.66 35.5,19.2L35.5,26.52C35.5,27.3 34.82,27.98 34,27.98Z" fill="#57ACDC"/>
</svg>
