<svg width="48" height="48" viewBox="0 0 48 48" fill="none" xmlns="http://www.w3.org/2000/svg" xmlns:xlink="http://www.w3.org/1999/xlink">
<path d="M22,41.5C11.24,41.5 2.5,32.76 2.5,22C2.5,11.24 11.24,2.5 22,2.5C32.76,2.5 41.5,11.24 41.5,22C41.5,32.76 32.76,41.5 22,41.5ZM22,5.5C12.9,5.5 5.5,12.9 5.5,22C5.5,31.1 12.9,38.5 22,38.5C31.1,38.5 38.5,31.1 38.5,22C38.5,12.9 31.1,5.5 22,5.5Z" fill="#939393"/>
<path d="M40.32,45.58C40.16,45.58 40,45.56 39.86,45.54C38.92,45.42 37.22,44.78 36.26,41.92C35.76,40.42 35.94,38.92 36.76,37.78C37.58,36.64 38.96,36 40.54,36C42.58,36 44.18,36.78 44.9,38.16C45.62,39.54 45.42,41.3 44.28,43C42.86,45.14 41.32,45.58 40.32,45.58ZM39.12,40.98C39.46,42.02 39.94,42.54 40.26,42.58C40.58,42.62 41.18,42.24 41.8,41.34C42.38,40.48 42.42,39.86 42.28,39.58C42.14,39.3 41.58,39 40.54,39C39.92,39 39.46,39.2 39.2,39.54C38.96,39.88 38.92,40.4 39.12,40.98Z" fill="#939393"/>
</svg>
