<svg width="48" height="48" viewBox="0 0 48 48" fill="none" xmlns="http://www.w3.org/2000/svg" xmlns:xlink="http://www.w3.org/1999/xlink">
<path d="M44,14.5L32,14.5C31.18,14.5 30.5,13.82 30.5,13C30.5,12.18 31.18,11.5 32,11.5L44,11.5C44.82,11.5 45.5,12.18 45.5,13C45.5,13.82 44.82,14.5 44,14.5Z" fill="#939393"/>
<path d="M12,14.5L4,14.5C3.18,14.5 2.5,13.82 2.5,13C2.5,12.18 3.18,11.5 4,11.5L12,11.5C12.82,11.5 13.5,12.18 13.5,13C13.5,13.82 12.82,14.5 12,14.5Z" fill="#939393"/>
<path d="M20,21.5C15.32,21.5 11.5,17.68 11.5,13C11.5,8.32 15.32,4.5 20,4.5C24.68,4.5 28.5,8.32 28.5,13C28.5,17.68 24.68,21.5 20,21.5ZM20,7.5C16.96,7.5 14.5,9.96 14.5,13C14.5,16.04 16.96,18.5 20,18.5C23.04,18.5 25.5,16.04 25.5,13C25.5,9.96 23.04,7.5 20,7.5Z" fill="#939393"/>
<path d="M44,36.5L36,36.5C35.18,36.5 34.5,35.82 34.5,35C34.5,34.18 35.18,33.5 36,33.5L44,33.5C44.82,33.5 45.5,34.18 45.5,35C45.5,35.82 44.82,36.5 44,36.5Z" fill="#939393"/>
<path d="M16,36.5L4,36.5C3.18,36.5 2.5,35.82 2.5,35C2.5,34.18 3.18,33.5 4,33.5L16,33.5C16.82,33.5 17.5,34.18 17.5,35C17.5,35.82 16.82,36.5 16,36.5Z" fill="#939393"/>
<path d="M28,43.5C23.32,43.5 19.5,39.68 19.5,35C19.5,30.32 23.32,26.5 28,26.5C32.68,26.5 36.5,30.32 36.5,35C36.5,39.68 32.68,43.5 28,43.5ZM28,29.5C24.96,29.5 22.5,31.96 22.5,35C22.5,38.04 24.96,40.5 28,40.5C31.04,40.5 33.5,38.04 33.5,35C33.5,31.96 31.04,29.5 28,29.5Z" fill="#939393"/>
</svg>
