<svg width="34" height="34" viewBox="0 0 34 34" fill="none" xmlns="http://www.w3.org/2000/svg" xmlns:xlink="http://www.w3.org/1999/xlink">
<path d="M2.149,8.12L1.056,9.147L1.056,9.147L2.149,8.12ZM10.225,16.707L9.132,17.735C9.447,18.07 9.898,18.242 10.356,18.202C10.814,18.161 11.228,17.914 11.48,17.53L10.225,16.707ZM10.229,16.702L11.302,15.654C10.984,15.329 10.536,15.165 10.084,15.209C9.631,15.253 9.223,15.499 8.974,15.879L10.229,16.702ZM13.64,30.919L14.356,32.237L14.358,32.236L13.64,30.919ZM18.239,28.413L18.957,29.73L18.958,29.73L18.239,28.413ZM21.777,16.707L22.853,17.752L22.869,17.735L21.777,16.707ZM29.853,8.12L30.946,9.147L30.947,9.146L29.853,8.12ZM3.609,-0.5C1.317,-0.5 -0.5,1.383 -0.5,3.651L2.5,3.651C2.5,2.994 3.02,2.5 3.609,2.5L3.609,-0.5ZM-0.5,3.651L-0.5,5.211L2.5,5.211L2.5,3.651L-0.5,3.651ZM-0.5,5.211C-0.5,6.674 0.056,8.084 1.056,9.147L3.242,7.092C2.768,6.588 2.5,5.915 2.5,5.211L-0.5,5.211ZM1.056,9.147L9.132,17.735L11.318,15.68L3.242,7.092L1.056,9.147ZM11.48,17.53L11.483,17.524L8.974,15.879L8.971,15.885L11.48,17.53ZM9.156,17.75C10.439,19.064 11.165,20.845 11.165,22.706L14.165,22.706C14.165,20.066 13.136,17.532 11.302,15.654L9.156,17.75ZM11.165,22.706L11.165,30.325L14.165,30.325L14.165,22.706L11.165,22.706ZM11.165,30.325C11.165,31.929 12.877,33.041 14.356,32.237L12.924,29.601C13.519,29.278 14.165,29.74 14.165,30.325L11.165,30.325ZM14.358,32.236L18.957,29.73L17.522,27.096L12.922,29.602L14.358,32.236ZM18.958,29.73C20.141,29.083 20.867,27.838 20.867,26.497L17.867,26.497C17.867,26.757 17.726,26.984 17.52,27.097L18.958,29.73ZM20.867,26.497L20.867,22.686L17.867,22.686L17.867,26.497L20.867,26.497ZM20.867,22.686C20.867,20.834 21.583,19.061 22.853,17.752L20.7,15.663C18.88,17.538 17.867,20.063 17.867,22.686L20.867,22.686ZM22.869,17.735L30.946,9.147L28.76,7.092L20.684,15.68L22.869,17.735ZM30.947,9.146C31.944,8.083 32.5,6.674 32.5,5.211L29.5,5.211C29.5,5.915 29.232,6.589 28.759,7.093L30.947,9.146ZM32.5,5.211L32.5,3.651L29.5,3.651L29.5,5.211L32.5,5.211ZM32.5,3.651C32.5,1.384 30.686,-0.5 28.393,-0.5L28.393,2.5C28.981,2.5 29.5,2.992 29.5,3.651L32.5,3.651ZM28.393,-0.5L3.609,-0.5L3.609,2.5L28.393,2.5L28.393,-0.5Z" fill="#FAFAFA"/>
</svg>
