<svg width="34" height="32" viewBox="0 0 34 32" fill="none" xmlns="http://www.w3.org/2000/svg" xmlns:xlink="http://www.w3.org/1999/xlink">
<path d="M22.566,29.607C22.566,30.436 23.238,31.107 24.066,31.107C24.894,31.107 25.566,30.436 25.566,29.607L22.566,29.607ZM25.566,6.911C25.566,6.082 24.894,5.411 24.066,5.411C23.238,5.411 22.566,6.082 22.566,6.911L25.566,6.911ZM25.566,29.607L25.566,6.911L22.566,6.911L22.566,29.607L25.566,29.607Z" fill="#FAFAFA"/>
<path d="M31.925,23.838C32.51,23.251 32.507,22.301 31.92,21.717C31.333,21.133 30.383,21.135 29.799,21.722L31.925,23.838ZM24.066,29.608L23.003,30.666C23.284,30.949 23.667,31.108 24.066,31.108C24.465,31.108 24.847,30.949 25.129,30.666L24.066,29.608ZM18.333,21.722C17.748,21.135 16.798,21.133 16.211,21.717C15.624,22.301 15.622,23.251 16.206,23.838L18.333,21.722ZM29.799,21.722L23.003,28.55L25.129,30.666L31.925,23.838L29.799,21.722ZM25.129,28.55L18.333,21.722L16.206,23.838L23.003,30.666L25.129,28.55Z" fill="#FAFAFA"/>
<path d="M9.019,2.388C9.019,1.56 8.347,0.888 7.519,0.888C6.69,0.888 6.019,1.56 6.019,2.388L9.019,2.388ZM6.019,25.084C6.019,25.913 6.69,26.584 7.519,26.584C8.347,26.584 9.019,25.913 9.019,25.084L6.019,25.084ZM6.019,2.388L6.019,25.084L9.019,25.084L9.019,2.388L6.019,2.388Z" fill="#FAFAFA"/>
<path d="M-0.341,8.157C-0.925,8.744 -0.923,9.694 -0.336,10.278C0.251,10.863 1.201,10.86 1.786,10.273L-0.341,8.157ZM7.519,2.387L8.582,1.329C8.3,1.046 7.918,0.887 7.519,0.887C7.12,0.887 6.737,1.046 6.456,1.329L7.519,2.387ZM13.252,10.273C13.836,10.86 14.786,10.863 15.373,10.278C15.96,9.694 15.963,8.744 15.378,8.157L13.252,10.273ZM1.786,10.273L8.582,3.445L6.456,1.329L-0.341,8.157L1.786,10.273ZM6.456,3.445L13.252,10.273L15.378,8.157L8.582,1.329L6.456,3.445Z" fill="#FAFAFA"/>
</svg>
