<svg width="38" height="20" viewBox="0 0 38 20" fill="none" xmlns="http://www.w3.org/2000/svg" xmlns:xlink="http://www.w3.org/1999/xlink">
<path d="M1.333,12.95L-0.167,12.95L1.333,12.95ZM31.167,1L4.833,1L4.833,4L31.167,4L31.167,1ZM4.833,1C3.414,1 2.032,1.297 1.053,2.337C0.097,3.354 -0.167,4.761 -0.167,6.217L2.833,6.217C2.833,5.022 3.07,4.571 3.238,4.392C3.385,4.236 3.753,4 4.833,4L4.833,1ZM-0.167,6.217L-0.167,12.95L2.833,12.95L2.833,6.217L-0.167,6.217ZM-0.167,12.95C-0.167,14.406 0.097,15.813 1.053,16.83C2.032,17.87 3.414,18.167 4.833,18.167L4.833,15.167C3.753,15.167 3.385,14.93 3.238,14.774C3.07,14.595 2.833,14.144 2.833,12.95L-0.167,12.95ZM4.833,18.167L31.167,18.167L31.167,15.167L4.833,15.167L4.833,18.167ZM31.167,18.167C32.586,18.167 33.968,17.87 34.947,16.83C35.903,15.813 36.167,14.406 36.167,12.95L33.167,12.95C33.167,14.144 32.93,14.595 32.762,14.774C32.615,14.93 32.247,15.167 31.167,15.167L31.167,18.167ZM36.167,12.95L36.167,6.217L33.167,6.217L33.167,12.95L36.167,12.95ZM36.167,6.217C36.167,4.761 35.903,3.354 34.947,2.337C33.968,1.297 32.586,1 31.167,1L31.167,4C32.247,4 32.615,4.236 32.762,4.392C32.93,4.571 33.167,5.022 33.167,6.217L36.167,6.217Z" fill="#FAFAFA"/>
</svg>
