<svg width="54" height="54" viewBox="0 0 54 54" fill="none" xmlns="http://www.w3.org/2000/svg" xmlns:xlink="http://www.w3.org/1999/xlink">
<path d="M38.5,52.875L13.5,52.875C2.475,52.875 -0.875,49.525 -0.875,38.5L-0.875,13.5C-0.875,2.475 2.475,-0.875 13.5,-0.875L17.25,-0.875C21.625,-0.875 23,0.55 24.75,2.875L28.5,7.875C29.325,8.975 29.45,9.125 31,9.125L38.5,9.125C49.525,9.125 52.875,12.475 52.875,23.5L52.875,38.5C52.875,49.525 49.525,52.875 38.5,52.875ZM13.5,2.875C4.575,2.875 2.875,4.575 2.875,13.5L2.875,38.5C2.875,47.425 4.575,49.125 13.5,49.125L38.5,49.125C47.425,49.125 49.125,47.425 49.125,38.5L49.125,23.5C49.125,14.575 47.425,12.875 38.5,12.875L31,12.875C27.8,12.875 26.75,11.775 25.5,10.125L21.75,5.125C20.45,3.4 20.075,2.875 17.25,2.875L13.5,2.875L13.5,2.875Z" fill="#FAFAFA"/>
</svg>
