<svg width="26" height="18" viewBox="0 0 26 18" fill="none" xmlns="http://www.w3.org/2000/svg" xmlns:xlink="http://www.w3.org/1999/xlink">
<path d="M4.078,4.191L3.249,2.941L3.244,2.945L4.078,4.191ZM4.078,13.797L4.912,12.55L4.909,12.548L4.078,13.797ZM20.458,13.797L21.292,15.043L21.293,15.043L20.458,13.797ZM20.458,4.191L19.625,5.439L19.627,5.44L20.458,4.191ZM3.244,2.945C0.953,4.478 -0.392,6.644 -0.392,9C-0.392,11.357 0.954,13.52 3.247,15.045L4.909,12.548C3.242,11.439 2.608,10.125 2.608,9C2.608,7.874 3.243,6.555 4.913,5.438L3.244,2.945ZM3.244,15.043C5.793,16.748 9.07,17.555 12.268,17.555C15.466,17.555 18.744,16.748 21.292,15.043L19.624,12.55C17.673,13.856 15.01,14.555 12.268,14.555C9.526,14.555 6.864,13.856 4.912,12.55L3.244,15.043ZM21.293,15.043C23.583,13.51 24.928,11.344 24.928,8.988C24.928,6.631 23.582,4.468 21.289,2.942L19.627,5.44C21.294,6.549 21.928,7.863 21.928,8.988C21.928,10.113 21.293,11.433 19.624,12.55L21.293,15.043ZM21.291,2.944C18.75,1.247 15.477,0.445 12.281,0.445C9.084,0.445 5.804,1.247 3.249,2.941L4.907,5.441C6.868,4.141 9.537,3.445 12.281,3.445C15.024,3.445 17.682,4.141 19.625,5.439L21.291,2.944Z" fill="#FAFAFA"/>
</svg>
