<svg width="38" height="18" viewBox="0 0 38 18" fill="none" xmlns="http://www.w3.org/2000/svg" xmlns:xlink="http://www.w3.org/1999/xlink">
<path d="M31.167,-0.167L4.833,-0.167L4.833,2.833L31.167,2.833L31.167,-0.167ZM4.833,-0.167C3.414,-0.167 2.032,0.13 1.053,1.17C0.097,2.187 -0.167,3.594 -0.167,5.05L2.833,5.05C2.833,3.856 3.07,3.405 3.238,3.226C3.385,3.07 3.753,2.833 4.833,2.833L4.833,-0.167ZM-0.167,5.05L-0.167,11.783L2.833,11.783L2.833,5.05L-0.167,5.05ZM-0.167,11.783C-0.167,13.239 0.097,14.646 1.053,15.663C2.032,16.703 3.414,17 4.833,17L4.833,14C3.753,14 3.385,13.764 3.238,13.608C3.07,13.429 2.833,12.978 2.833,11.783L-0.167,11.783ZM4.833,17L31.167,17L31.167,14L4.833,14L4.833,17ZM31.167,17C32.586,17 33.968,16.703 34.947,15.663C35.903,14.646 36.167,13.239 36.167,11.783L33.167,11.783C33.167,12.978 32.93,13.429 32.762,13.608C32.615,13.764 32.247,14 31.167,14L31.167,17ZM36.167,11.783L36.167,5.05L33.167,5.05L33.167,11.783L36.167,11.783ZM36.167,5.05C36.167,3.594 35.903,2.187 34.947,1.17C33.968,0.13 32.586,-0.167 31.167,-0.167L31.167,2.833C32.247,2.833 32.615,3.07 32.762,3.226C32.93,3.405 33.167,3.856 33.167,5.05L36.167,5.05Z" fill="#FAFAFA"/>
</svg>
