<svg width="18" height="18" viewBox="0 0 18 18" fill="none" xmlns="http://www.w3.org/2000/svg" xmlns:xlink="http://www.w3.org/1999/xlink">
<path d="M8.26,16.153L8.111,17.646C8.177,17.652 8.244,17.654 8.31,17.652L8.26,16.153ZM7.72,16.153L7.67,17.652C7.732,17.654 7.794,17.652 7.856,17.647L7.72,16.153ZM15.264,8.904L16.764,8.91L16.764,8.904L15.264,8.904ZM8.409,14.66C8.142,14.634 7.85,14.635 7.584,14.659L7.856,17.647C7.95,17.638 8.051,17.64 8.111,17.646L8.409,14.66ZM7.77,14.654C4.686,14.55 2.233,12.024 2.233,8.904L-0.767,8.904C-0.767,13.638 2.965,17.494 7.67,17.652L7.77,14.654ZM2.233,8.904C2.233,5.721 4.803,3.138 7.998,3.138L7.998,0.138C3.142,0.138 -0.767,4.069 -0.767,8.904L2.233,8.904ZM7.998,3.138C11.179,3.138 13.764,5.723 13.764,8.904L16.764,8.904C16.764,4.066 12.836,0.138 7.998,0.138L7.998,3.138ZM13.764,8.898C13.751,12.024 11.293,14.55 8.21,14.654L8.31,17.652C13.017,17.494 16.744,13.638 16.764,8.91L13.764,8.898Z" fill="#FAFAFA"/>
</svg>
