<svg width="46" height="60" viewBox="0 0 46 60" fill="none" xmlns="http://www.w3.org/2000/svg" xmlns:xlink="http://www.w3.org/1999/xlink">
<path d="M7.361,0L27.442,0L44.434,17.737L44.434,52.182C44.434,56.496 40.953,60 36.639,60L7.361,60C3.069,60 -0.434,56.496 -0.434,52.182L-0.434,7.796C-0.434,3.504 3.069,0 7.361,0L7.361,0Z" clip-rule="evenodd" fill-rule="evenodd" fill="#00733B"/>
<g opacity="0.302">
<path d="M27.42,0L27.42,17.584L44.434,17.584L27.42,0Z" clip-rule="evenodd" fill-rule="evenodd" fill="#FFFFFF"/>
</g>
<path d="M18.223,43.686L15.31,43.686L13.318,40.336L11.325,43.686L8.391,43.686L11.85,37.861L8.807,32.803L11.741,32.803L13.317,35.431L14.872,32.803L17.806,32.803L14.785,37.883L18.223,43.686ZM19.252,43.686L19.252,32.803L22.033,32.803L22.033,41.321L26.763,41.321L26.763,43.686L19.252,43.686L19.252,43.686ZM31.361,43.818C30.266,43.818 29.303,43.467 28.471,42.788C27.661,42.131 27.201,41.299 27.135,40.314L29.522,39.613C29.588,40.139 29.807,40.599 30.179,40.949C30.573,41.299 31.011,41.475 31.493,41.475C31.887,41.475 32.215,41.387 32.478,41.212C32.719,41.037 32.85,40.796 32.85,40.511C32.85,40.27 32.741,40.073 32.544,39.898C32.347,39.745 32.084,39.613 31.777,39.504C31.471,39.394 31.099,39.285 30.726,39.197C30.332,39.088 29.938,38.956 29.566,38.781C29.172,38.628 28.821,38.431 28.515,38.19C28.186,37.971 27.945,37.642 27.748,37.226C27.551,36.832 27.442,36.35 27.442,35.803C27.442,34.905 27.814,34.161 28.58,33.569C29.347,32.956 30.266,32.672 31.339,32.672C32.412,32.672 33.354,32.934 34.142,33.438C34.931,33.964 35.434,34.642 35.631,35.475L33.135,36.526C33.026,36.066 32.807,35.694 32.5,35.409C32.193,35.146 31.799,34.993 31.339,34.993C30.989,34.993 30.726,35.08 30.507,35.212C30.31,35.343 30.223,35.54 30.223,35.781C30.223,36 30.354,36.197 30.617,36.351C30.88,36.482 31.23,36.591 31.624,36.657C32.018,36.723 32.456,36.832 32.916,36.986C33.398,37.161 33.814,37.336 34.23,37.577C34.624,37.796 34.952,38.168 35.215,38.65C35.5,39.154 35.631,39.745 35.631,40.424C35.631,41.431 35.237,42.263 34.449,42.876C33.66,43.489 32.631,43.818 31.361,43.818L31.361,43.818Z" fill="#FFFFFF"/>
</svg>
