<svg width="46" height="60" viewBox="0 0 46 60" fill="none" xmlns="http://www.w3.org/2000/svg" xmlns:xlink="http://www.w3.org/1999/xlink">
<path d="M7.375,0L27.435,0L44.436,17.721L44.436,52.189C44.436,56.507 40.943,60 36.64,60L7.375,60C3.057,60 -0.436,56.507 -0.436,52.189L-0.436,7.811C-0.436,3.493 3.057,0 7.375,0L7.375,0Z" clip-rule="evenodd" fill-rule="evenodd" fill="#E2574C"/>
<g opacity="0.302">
<path d="M27.42,0L27.42,17.586L44.436,17.586L27.42,0Z" clip-rule="evenodd" fill-rule="evenodd" fill="#FFFFFF"/>
</g>
<path d="M8.244,44.768L8.244,33.808L12.907,33.808C14.062,33.808 14.976,34.123 15.666,34.768C16.355,35.397 16.7,36.252 16.7,37.316C16.7,38.381 16.355,39.235 15.666,39.865C14.976,40.51 14.062,40.825 12.907,40.825L11.048,40.825L11.048,44.768L8.244,44.768ZM11.048,38.441L12.592,38.441C13.012,38.441 13.342,38.351 13.567,38.141C13.792,37.946 13.912,37.676 13.912,37.316C13.912,36.957 13.792,36.687 13.567,36.492C13.342,36.282 13.012,36.192 12.592,36.192L11.048,36.192L11.048,38.441ZM17.855,44.768L17.855,33.808L21.738,33.808C22.502,33.808 23.222,33.913 23.897,34.138C24.571,34.363 25.186,34.678 25.726,35.112C26.265,35.532 26.7,36.102 27.015,36.822C27.315,37.541 27.48,38.366 27.48,39.295C27.48,40.21 27.315,41.035 27.015,41.754C26.7,42.474 26.265,43.043 25.726,43.463C25.186,43.898 24.571,44.213 23.897,44.438C23.222,44.663 22.502,44.768 21.738,44.768L17.855,44.768ZM20.598,42.384L21.408,42.384C21.843,42.384 22.247,42.339 22.622,42.234C22.982,42.129 23.327,41.964 23.657,41.739C23.972,41.514 24.226,41.199 24.406,40.78C24.586,40.36 24.676,39.865 24.676,39.295C24.676,38.711 24.586,38.216 24.406,37.796C24.226,37.376 23.972,37.062 23.657,36.837C23.327,36.612 22.982,36.447 22.622,36.342C22.247,36.237 21.843,36.192 21.408,36.192L20.598,36.192L20.598,42.384ZM28.889,44.768L28.889,33.808L36.685,33.808L36.685,36.192L31.693,36.192L31.693,37.946L35.681,37.946L35.681,40.315L31.693,40.315L31.693,44.768L28.889,44.768Z" fill="#FFFFFF"/>
</svg>
