<svg width="46" height="60" viewBox="0 0 46 60" fill="none" xmlns="http://www.w3.org/2000/svg" xmlns:xlink="http://www.w3.org/1999/xlink">
<path d="M7.364,0L27.432,0L44.438,17.725L44.438,52.198C44.438,56.496 40.933,60 36.636,60L7.364,60C3.048,60 -0.438,56.496 -0.438,52.198L-0.438,7.802C-0.438,3.486 3.048,0 7.364,0L7.364,0Z" clip-rule="evenodd" fill-rule="evenodd" fill="#9900CC"/>
<g opacity="0.302">
<path d="M27.413,0L27.413,17.578L44.438,17.578L27.413,0Z" clip-rule="evenodd" fill-rule="evenodd" fill="#FFFFFF"/>
</g>
<path d="M27.358,39.434C27.93,38.475 28.317,37.258 28.391,36.059C28.428,35.284 28.262,34.473 27.893,33.717C27.303,32.518 26.307,31.854 25.329,31.19C24.61,30.71 23.927,30.249 23.448,29.603L23.356,29.493C23.079,29.105 22.747,28.663 22.692,28.294C22.655,27.925 22.304,27.667 21.954,27.685C21.566,27.722 21.29,28.017 21.29,28.405L21.29,41.058C20.7,40.689 19.962,40.467 19.15,40.467C17.195,40.467 15.609,41.74 15.609,43.308C15.609,44.875 17.195,46.148 19.15,46.148C21.105,46.148 22.71,44.875 22.71,43.308L22.71,35.026C23.78,35.45 25.514,36.483 25.993,38.899C25.901,39.029 25.827,39.176 25.716,39.287C25.458,39.582 25.495,40.025 25.79,40.301C26.085,40.559 26.528,40.523 26.786,40.227C26.971,40.006 27.155,39.766 27.303,39.49C27.321,39.471 27.34,39.453 27.358,39.434L27.358,39.434Z" fill="#FFFFFF"/>
</svg>
