<svg width="46" height="60" viewBox="0 0 46 60" fill="none" xmlns="http://www.w3.org/2000/svg" xmlns:xlink="http://www.w3.org/1999/xlink">
<path d="M7.375,0L27.435,0L44.436,17.721L44.436,52.189C44.436,56.507 40.943,60 36.64,60L7.375,60C3.057,60 -0.436,56.507 -0.436,52.189L-0.436,7.811C-0.436,3.493 3.057,0 7.375,0L7.375,0Z" clip-rule="evenodd" fill-rule="evenodd" fill="#E03303"/>
<g opacity="0.302">
<path d="M27.42,0L27.42,17.586L44.436,17.586L27.42,0Z" clip-rule="evenodd" fill-rule="evenodd" fill="#FFFFFF"/>
</g>
<path d="M8.994,42.924L8.994,32.024L13.627,32.024C14.766,32.024 15.681,32.339 16.37,32.984C17.045,33.613 17.39,34.453 17.39,35.517C17.39,36.567 17.045,37.421 16.37,38.051C15.681,38.681 14.766,38.995 13.627,38.995L11.768,38.995L11.768,42.924L8.994,42.924ZM11.768,36.627L13.312,36.627C13.732,36.627 14.047,36.537 14.286,36.342C14.511,36.147 14.616,35.862 14.616,35.517C14.616,35.157 14.511,34.888 14.286,34.693C14.047,34.498 13.732,34.393 13.312,34.393L11.768,34.393L11.768,36.627ZM18.559,42.924L18.559,32.024L23.192,32.024C24.331,32.024 25.246,32.339 25.936,32.984C26.625,33.613 26.955,34.453 26.955,35.517C26.955,36.567 26.625,37.421 25.936,38.051C25.246,38.681 24.331,38.995 23.192,38.995L21.348,38.995L21.348,42.924L18.559,42.924ZM21.348,36.627L22.877,36.627C23.297,36.627 23.627,36.537 23.852,36.342C24.076,36.147 24.196,35.862 24.196,35.517C24.196,35.157 24.077,34.888 23.852,34.693C23.627,34.498 23.297,34.393 22.877,34.393L21.348,34.393L21.348,36.627ZM30.958,42.924L30.958,34.393L27.855,34.393L27.855,32.024L36.865,32.024L36.865,34.393L33.747,34.393L33.747,42.924L30.958,42.924Z" fill="#FFFFFF"/>
</svg>
