<svg width="46" height="60" viewBox="0 0 46 60" fill="none" xmlns="http://www.w3.org/2000/svg" xmlns:xlink="http://www.w3.org/1999/xlink">
<path d="M7.368,0L27.444,0L44.437,17.73L44.437,52.195C44.437,56.506 40.943,60 36.632,60L7.368,60C3.057,60 -0.437,56.506 -0.437,52.195L-0.437,7.805C-0.437,3.494 3.057,0 7.368,0L7.368,0Z" fill="#0263D1"/>
<g opacity="0.302">
<path d="M27.419,0L27.419,17.584L44.437,17.584L27.419,0Z" clip-rule="evenodd" fill-rule="evenodd" fill="#FFFFFF"/>
</g>
<path d="M6.81,42.812L6.81,32.879L10.328,32.879C11.032,32.879 11.687,32.985 12.294,33.179C12.901,33.381 13.451,33.672 13.944,34.06C14.437,34.449 14.826,34.966 15.109,35.613C15.392,36.26 15.537,37.005 15.537,37.846C15.537,38.687 15.392,39.431 15.109,40.078C14.826,40.725 14.437,41.243 13.944,41.631C13.451,42.019 12.901,42.311 12.294,42.513C11.687,42.707 11.032,42.812 10.328,42.812L6.81,42.812ZM9.293,40.652L10.029,40.652C10.425,40.652 10.798,40.604 11.129,40.515C11.469,40.418 11.776,40.264 12.067,40.062C12.359,39.86 12.585,39.569 12.747,39.188C12.917,38.816 12.997,38.363 12.997,37.846C12.997,37.328 12.917,36.875 12.747,36.495C12.585,36.123 12.359,35.832 12.067,35.63C11.776,35.419 11.469,35.274 11.129,35.177C10.798,35.088 10.425,35.039 10.029,35.039L9.293,35.039L9.293,40.652ZM21.563,42.925C20.067,42.925 18.829,42.44 17.851,41.478C16.872,40.515 16.387,39.302 16.387,37.846C16.387,36.39 16.872,35.177 17.851,34.214C18.829,33.252 20.067,32.766 21.563,32.766C23.035,32.766 24.257,33.252 25.235,34.214C26.206,35.177 26.691,36.39 26.691,37.846C26.691,39.302 26.206,40.515 25.235,41.478C24.257,42.44 23.035,42.925 21.563,42.925ZM19.654,39.941C20.148,40.491 20.779,40.766 21.547,40.766C22.315,40.766 22.938,40.491 23.432,39.941C23.925,39.383 24.168,38.687 24.168,37.846C24.168,37.005 23.925,36.309 23.432,35.751C22.938,35.201 22.315,34.926 21.547,34.926C20.779,34.926 20.148,35.201 19.654,35.751C19.161,36.309 18.91,37.005 18.91,37.846C18.91,38.687 19.161,39.383 19.654,39.941ZM32.596,42.925C31.148,42.925 29.943,42.472 28.989,41.583C28.026,40.685 27.549,39.439 27.549,37.846C27.549,36.26 28.034,35.015 29.005,34.117C29.983,33.219 31.172,32.766 32.596,32.766C33.882,32.766 34.934,33.082 35.767,33.721C36.592,34.352 37.069,35.193 37.19,36.244L34.683,36.754C34.578,36.204 34.327,35.759 33.939,35.427C33.55,35.096 33.098,34.926 32.58,34.926C31.868,34.926 31.278,35.177 30.8,35.686C30.323,36.204 30.08,36.916 30.08,37.846C30.08,38.776 30.323,39.488 30.792,39.997C31.269,40.515 31.86,40.766 32.58,40.766C33.097,40.766 33.542,40.62 33.906,40.329C34.27,40.038 34.497,39.65 34.594,39.164L37.158,39.747C36.923,40.75 36.406,41.526 35.597,42.084C34.796,42.642 33.793,42.925 32.596,42.925L32.596,42.925Z" fill="#FFFFFF"/>
</svg>
