<svg width="40" height="40" viewBox="0 0 40 40" fill="none" xmlns="http://www.w3.org/2000/svg" xmlns:xlink="http://www.w3.org/1999/xlink">
<path d="M18.366,34C19.194,34 19.866,33.328 19.866,32.5C19.866,31.672 19.194,31 18.366,31L18.366,34ZM9.733,32.35L9.945,30.865C9.929,30.863 9.913,30.861 9.897,30.859L9.733,32.35ZM9.733,7.65L9.897,9.141C9.913,9.139 9.929,9.137 9.945,9.135L9.733,7.65ZM18.266,9C19.094,9 19.766,8.328 19.766,7.5C19.766,6.672 19.094,6 18.266,6L18.266,9ZM18.366,31L12.499,31L12.499,34L18.366,34L18.366,31ZM12.499,31C11.488,31 10.655,30.967 9.945,30.865L9.521,33.835C10.443,33.967 11.444,34 12.499,34L12.499,31ZM9.897,30.859C7.904,30.639 7.047,30.107 6.558,29.365C5.981,28.487 5.666,26.969 5.666,24.167L2.666,24.167C2.666,26.998 2.943,29.329 4.053,31.015C5.251,32.835 7.178,33.577 9.568,33.841L9.897,30.859ZM5.666,24.167L5.666,15.833L2.666,15.833L2.666,24.167L5.666,24.167ZM5.666,15.833C5.666,13.031 5.981,11.513 6.558,10.635C7.047,9.893 7.904,9.361 9.897,9.141L9.568,6.159C7.178,6.423 5.251,7.165 4.053,8.985C2.943,10.671 2.666,13.002 2.666,15.833L5.666,15.833ZM9.945,9.135C10.655,9.033 11.488,9 12.499,9L12.499,6C11.444,6 10.443,6.033 9.521,6.165L9.945,9.135ZM12.499,9L18.266,9L18.266,6L12.499,6L12.499,9Z" fill="#FAFAFA"/>
<path d="M25.033,6C24.205,6 23.533,6.672 23.533,7.5C23.533,8.328 24.205,9 25.033,9L25.033,6ZM30.267,7.65L30.054,9.135C30.07,9.137 30.086,9.139 30.102,9.141L30.267,7.65ZM30.267,32.35L30.102,30.859C30.086,30.861 30.07,30.863 30.054,30.865L30.267,32.35ZM25.033,31C24.205,31 23.533,31.672 23.533,32.5C23.533,33.328 24.205,34 25.033,34L25.033,31ZM25.033,9L27.5,9L27.5,6L25.033,6L25.033,9ZM27.5,9C28.511,9 29.344,9.033 30.054,9.135L30.479,6.165C29.556,6.033 28.555,6 27.5,6L27.5,9ZM30.102,9.141C32.095,9.361 32.952,9.893 33.441,10.635C34.019,11.513 34.333,13.031 34.333,15.833L37.333,15.833C37.333,13.002 37.056,10.671 35.946,8.985C34.748,7.165 32.821,6.423 30.431,6.159L30.102,9.141ZM34.333,15.833L34.333,24.167L37.333,24.167L37.333,15.833L34.333,15.833ZM34.333,24.167C34.333,26.969 34.019,28.487 33.441,29.365C32.952,30.107 32.095,30.639 30.102,30.859L30.431,33.841C32.821,33.577 34.748,32.835 35.946,31.015C37.056,29.329 37.333,26.998 37.333,24.167L34.333,24.167ZM30.054,30.865C29.344,30.967 28.511,31 27.5,31L27.5,34C28.555,34 29.556,33.967 30.479,33.835L30.054,30.865ZM27.5,31L25.033,31L25.033,34L27.5,34L27.5,31Z" fill="#FAFAFA"/>
<line x1="23.5" y1="3.333" x2="23.5" y2="36.667" stroke="#FAFAFA" stroke-width="1.5" stroke-miterlimit="3.999327" stroke-linecap="round" stroke-linejoin="round"/>
<path d="M23.251,19.59C23.251,20.853 22.232,21.872 20.969,21.872L20.969,23.872C23.336,23.872 25.251,21.957 25.251,19.59L23.251,19.59ZM20.969,21.872C19.706,21.872 18.688,20.853 18.688,19.59L16.688,19.59C16.688,21.957 18.602,23.872 20.969,23.872L20.969,21.872ZM18.688,19.59C18.688,18.327 19.706,17.308 20.969,17.308L20.969,15.308C18.602,15.308 16.688,17.223 16.688,19.59L18.688,19.59ZM20.969,17.308C22.232,17.308 23.251,18.327 23.251,19.59L25.251,19.59C25.251,17.223 23.336,15.308 20.969,15.308L20.969,17.308Z" fill="#FAFAFA"/>
<path d="M12.619,17.207L13.462,17.745L13.463,17.743L12.619,17.207ZM12.619,21.964L13.463,21.427L13.462,21.426L12.619,21.964ZM25,13.035L26,13.035C26,12.666 25.797,12.327 25.471,12.153L25,13.035ZM25,26.136L25.471,27.018C25.797,26.844 26,26.505 26,26.136L25,26.136ZM20.97,11C17.31,11 14.009,13.158 11.775,16.67L13.463,17.743C15.427,14.655 18.158,13 20.97,13L20.97,11ZM11.776,16.669C11.236,17.514 11,18.58 11,19.585C11,20.591 11.236,21.657 11.776,22.502L13.462,21.426C13.176,20.979 13,20.313 13,19.585C13,18.858 13.176,18.192 13.462,17.745L11.776,16.669ZM11.775,22.501C14.009,26.012 17.31,28.171 20.97,28.171L20.97,26.171C18.158,26.171 15.427,24.516 13.463,21.427L11.775,22.501ZM25.471,12.153C24.071,11.404 22.548,11 20.97,11L20.97,13C22.199,13 23.4,13.313 24.529,13.917L25.471,12.153ZM20.97,28.171C22.548,28.171 24.071,27.767 25.471,27.018L24.529,25.254C23.4,25.857 22.199,26.171 20.97,26.171L20.97,28.171ZM24,13.035L24,26.136L26,26.136L26,13.035L24,13.035Z" fill="#FAFAFA"/>
</svg>
